inDegrees=no
num_controls=7
num_derivatives=13
num_iterations=103
num_multipliers=7
num_parameters=0
num_slacks=7
num_states=26
objective=4.437960
objective_accelerations=0.107642
objective_balance=0.035761
objective_effort=0.201538
objective_height=4.021184
objective_ligament=0.071835
solver_duration=1056.971073
status=Solve_Succeeded
success=true
DataType=double
version=3
OpenSimVersion=4.4-2022-07-23-0e9fedc
endheader
time	/jointset/ground_pelvis/pelvis_tilt/value	/jointset/ground_pelvis/pelvis_tx/value	/jointset/ground_pelvis/pelvis_ty/value	/jointset/hip_l/hip_flexion_l/value	/jointset/hip_l/hip_adduction_l/value	/jointset/hip_l/hip_rotation_l/value	/jointset/back/lumbar_extension/value	/jointset/patellofemoral_l/patellar_flexion_l/value	/jointset/knee_l/knee_flexion_l/value	/jointset/knee_l/knee_adduction_l/value	/jointset/knee_l/knee_rotation_l/value	/jointset/ankle_l/ankle_angle_l/value	/jointset/subtalar_l/subtalar_angle_l/value	/jointset/ground_pelvis/pelvis_tilt/speed	/jointset/ground_pelvis/pelvis_tx/speed	/jointset/ground_pelvis/pelvis_ty/speed	/jointset/hip_l/hip_flexion_l/speed	/jointset/hip_l/hip_adduction_l/speed	/jointset/hip_l/hip_rotation_l/speed	/jointset/back/lumbar_extension/speed	/jointset/patellofemoral_l/patellar_flexion_l/speed	/jointset/knee_l/knee_flexion_l/speed	/jointset/knee_l/knee_adduction_l/speed	/jointset/knee_l/knee_rotation_l/speed	/jointset/ankle_l/ankle_angle_l/speed	/jointset/subtalar_l/subtalar_angle_l/speed	/forceset/tau_hip_flexion_l	/forceset/tau_hip_adduction_l	/forceset/tau_hip_rotation_l	/forceset/tau_knee_flexion_l	/forceset/tau_ankle_angle_l	/forceset/tau_subtalar_angle_l	/forceset/tau_lumbar_extension	lambda_cid13_p0	lambda_cid13_p1	lambda_cid13_p2	lambda_cid13_p3	lambda_cid13_p4	lambda_cid13_p5	lambda_cid14_p0	/jointset/ground_pelvis/pelvis_tilt/accel	/jointset/ground_pelvis/pelvis_tx/accel	/jointset/ground_pelvis/pelvis_ty/accel	/jointset/hip_l/hip_flexion_l/accel	/jointset/hip_l/hip_adduction_l/accel	/jointset/hip_l/hip_rotation_l/accel	/jointset/back/lumbar_extension/accel	/jointset/patellofemoral_l/patellar_flexion_l/accel	/jointset/knee_l/knee_flexion_l/accel	/jointset/knee_l/knee_adduction_l/accel	/jointset/knee_l/knee_rotation_l/accel	/jointset/ankle_l/ankle_angle_l/accel	/jointset/subtalar_l/subtalar_angle_l/accel	gamma_cid13_p0	gamma_cid13_p1	gamma_cid13_p2	gamma_cid13_p3	gamma_cid13_p4	gamma_cid13_p5	gamma_cid14_p0
0	-0.03682248293999443	0.05667747803372856	0.9203416057084816	0.3085811930696054	-0.2956402989619502	-0.301606246796302	-0.3879500408040475	0.2499276582270869	0.249927658227084	-0.1745326635656144	-0.1745319032011723	-0.0008036543073733089	0.0004377739361091863	0	0	0	0	0	0	0	0	0	0	0	0	0	0.04019340320645147	-0.030488117321136	-0.02439449701577093	-0.2780736947829095	0.2955385615591721	-0.0363887284523607	0.0526821122548488	48.86015666296477	5.188460320467803	1.071645543498252	-38.88866664924688	-670.4763854246486	-60.5782076057579	-23.19705084923814	1.360042643950172	-0.147094149883104	-0.132704089177924	0.8937677790588946	-0.4058504249508597	1.391077380569511	-5.113429145280995	3.840511625523516	3.840511625523037	0.4017483341693141	0.01014433450472406	1.821689568392648	0.1924896562584862	-1.180746511636777e-08	3.055166137587142e-08	2.557861481683558e-08	1.180677896214994e-08	4.007210157560489e-09	-4.389809610028708e-09	-2.333369821721854e-09
0.01	-0.03675342894129165	0.05666789394474976	0.9203350550348022	0.3086252058163781	-0.2956603034760914	-0.3015368647721664	-0.3882042767771129	0.25011552808183	0.2501155280817337	-0.1745134686980259	-0.1745302920377309	-0.0007174019706499978	0.0004460272633615154	0.01387216329779675	-0.002144547117840268	-0.001316648970488293	0.008910102765291899	-0.003952112355482062	0.01377293357964426	-0.05066347613061343	0.0373618423224706	0.03736184232246394	0.003867559135712941	0.0002978996006159071	0.01685481516670199	0.001565522977328279	0.02517199882209059	-0.04647059499776715	-0.02058252054377044	-0.2503717933983483	0.2446829592590878	-0.004857212978883385	0.0620611428040214	33.61334728544058	-5.925832332962087	2.946096722741274	-27.99088750750474	-670.7565703586314	-82.80929431489405	-23.19918119218921	1.410006445281406	-0.2822920272066631	-0.1321216348883948	0.9057631044937702	-0.3825805619333648	1.354878205925933	-5.015249074956616	3.652201709619764	3.652201709619632	0.383554949521788	0.03596629181360124	1.558028940096673	0.1258046268636129	-1.117585787405622e-08	2.920530980034752e-08	2.980564795538475e-08	9.929733874284819e-09	-4.300505076557497e-09	-1.301830856163077e-08	-1.978668463124352e-09
0.02	-0.03654381265512518	0.05663003297770124	0.9203151426046345	0.3087615459066976	-0.2957183668980014	-0.3013328580404019	-0.3889596359571039	0.2506706525945204	0.2506706525945141	-0.1744547391888531	-0.1745264311754245	-0.0004744711924050102	0.0004673800220645679	0.02811245749910828	-0.005655375613941962	-0.002672351297659544	0.01846546869979454	-0.007611781554505955	0.02692494152975163	-0.1002246413815034	0.07345093160534236	0.07345093160533164	0.007906928121403353	0.0004499399601080471	0.03133568830488918	0.002619886290391894	0.01015059443822557	-0.06245307267415553	-0.01677054407109713	-0.2226698920136388	0.1938273569591215	0.02667430249487549	0.07144017335340319	18.39626352735409	-17.04715890901903	4.823758884444302	-17.20083520451401	-670.6348351133475	-105.00769557121	-23.20548420467631	1.4336688246522	-0.4203504255345007	-0.1405147605145746	1.022820412900488	-0.3473617936603625	1.266892254660418	-4.892966969336516	3.585961017603773	3.585961017603815	0.4361103041626594	-0.01902751372217017	1.346901162690329	0.09025772340462104	-1.054425063174467e-08	2.785895822482363e-08	3.403268109393391e-08	8.052688786419699e-09	-1.260822031067548e-08	-2.164680751323284e-08	-1.62396710452685e-09
0.03	-0.03619122663043917	0.05655324698748646	0.9202816283116501	0.3089944393762935	-0.2958118497776268	-0.3010000918131658	-0.3902037357371458	0.2515807935389646	0.2515807935391218	-0.1743552161394975	-0.1745215851556701	-9.452586192176768e-05	0.0004978291690565819	0.04234258760891633	-0.00962801056530492	-0.004021288196073207	0.02798429081809004	-0.01107233533866423	0.03955980465770399	-0.1482796772193564	0.1084022061732451	0.1084022061732363	0.01196071563425144	0.0005148351536395872	0.04465783005841563	0.003484989180524895	0.008349614279391496	-0.05200624562944242	-0.01680933646490421	-0.2224888735098353	0.1977286312507975	0.01731102365796032	0.07368823908641454	19.24020432977105	-13.21169938396016	4.307367043643791	-18.01554522442206	-671.9184872323453	-96.63590374525882	-23.21578392122748	1.408359706501407	-0.3746466451409817	-0.1307028442565767	0.8970711537853652	-0.3435432601088445	1.251504898539311	-4.714426280131979	3.423453331351492	3.423453331352468	0.3844768260195043	0.01858842195507529	1.325538460688102	0.08688522860371321	-1.551720783033147e-08	1.806243995779932e-08	4.873548800039424e-08	1.115649269398737e-08	-2.778557360953629e-08	-3.504152019235327e-08	-4.306832897450683e-09
0.04	-0.03569820438420396	0.05643894932472004	0.9202349007117298	0.3093186526754427	-0.2959395664129494	-0.300543032643289	-0.3919189167534303	0.2528351957602178	0.2528351957602388	-0.1742162624446142	-0.1745162221062952	0.0004187744418982987	0.0005373790763064981	0.05619970181298413	-0.01315771012427054	-0.005315012684828857	0.03672943463606586	-0.0144585326954575	0.05178353005267198	-0.1944408886221713	0.1423031869398368	0.1423031869398321	0.01579305719404661	0.0005533457896724404	0.05800668297210446	0.00444003834210137	0.006548634119734891	-0.04155941858465278	-0.01684812886017428	-0.2223078550062632	0.2016299055423851	0.007947744821112436	0.07593630481882516	20.11221766962969	-9.378462766662281	3.788254206022244	-18.92218805400726	-672.8199447624696	-88.22293136741717	-23.22987757268237	1.359065643503279	-0.3317633470542161	-0.1294722785829797	0.8680847528361886	-0.3324905081878484	1.184664708061491	-4.514202082329214	3.375902257341659	3.375902257342112	0.3918211135513286	-0.02430442522408354	1.352243394723566	0.1082469776931142	-2.060572305862752e-08	8.091691449713136e-09	6.365429024227543e-08	1.436299451898665e-08	-4.310456893035056e-08	-4.853450531946378e-08	-7.052328940921349e-09
0.05	-0.03506833164141534	0.05629099862250278	0.9201754325890434	0.3097271007429686	-0.2961007402589135	-0.2999659621857222	-0.394086719542533	0.2544234866145297	0.2544234866146665	-0.1740400121291583	-0.1745108177362933	0.00106499952756486	0.0005867227895243955	0.0697305706142702	-0.01641558905469231	-0.006576162688001663	0.04489097856281463	-0.01775555492289353	0.06356790500319309	-0.2388553682635863	0.1751850367578896	0.1751850367578885	0.01943385128438741	0.0005286256811238609	0.07117271234984549	0.005427824563073157	0.002690931129848429	-0.04210701458427287	-0.01617576421225671	-0.217927314701206	0.1943120523294024	0.01167638243819624	0.07930973447344368	17.86100341855738	-10.62976536866752	4.017588914247837	-17.76819705599926	-673.6243103994624	-90.45514661182057	-23.24753179792969	1.343454869729472	-0.3202710755833569	-0.1240777312033791	0.7798069329848165	-0.3252169558339384	1.165916317815785	-4.365425765215419	3.218835700419774	3.218835700420382	0.3467439376158475	0.008619350154563832	1.288938419758659	0.09390400453983282	-2.302514370968835e-08	4.972473316216492e-09	7.133155568827993e-08	1.600867819090719e-08	-5.257174564213474e-08	-5.548768806108322e-08	-8.094416226952219e-09
